<svg width="660" height="80" viewBox="0 0 660 80" fill="none" xmlns="http://www.w3.org/2000/svg">
<mask id="path-1-outside-1" maskUnits="userSpaceOnUse" x="0.544006" y="0.208008" width="660" height="80" fill="black">
<rect fill="white" x="0.544006" y="0.208008" width="660" height="80"/>
<path d="M54.448 8.17601V58H47.896V20.848L31.336 58H26.728L10.096 20.776V58H3.54401V8.17601H10.6L29.032 49.36L47.464 8.17601H54.448Z"/>
<path d="M63.1116 38.128C63.1116 34.096 63.9276 30.568 65.5596 27.544C67.1916 24.472 69.4236 22.096 72.2556 20.416C75.1356 18.736 78.3276 17.896 81.8316 17.896C85.2876 17.896 88.2876 18.64 90.8316 20.128C93.3756 21.616 95.2716 23.488 96.5196 25.744V18.544H103.144V58H96.5196V50.656C95.2236 52.96 93.2796 54.88 90.6876 56.416C88.1436 57.904 85.1676 58.648 81.7596 58.648C78.2556 58.648 75.0876 57.784 72.2556 56.056C69.4236 54.328 67.1916 51.904 65.5596 48.784C63.9276 45.664 63.1116 42.112 63.1116 38.128ZM96.5196 38.2C96.5196 35.224 95.9196 32.632 94.7196 30.424C93.5196 28.216 91.8876 26.536 89.8236 25.384C87.8076 24.184 85.5756 23.584 83.1276 23.584C80.6796 23.584 78.4476 24.16 76.4316 25.312C74.4156 26.464 72.8076 28.144 71.6076 30.352C70.4076 32.56 69.8076 35.152 69.8076 38.128C69.8076 41.152 70.4076 43.792 71.6076 46.048C72.8076 48.256 74.4156 49.96 76.4316 51.16C78.4476 52.312 80.6796 52.888 83.1276 52.888C85.5756 52.888 87.8076 52.312 89.8236 51.16C91.8876 49.96 93.5196 48.256 94.7196 46.048C95.9196 43.792 96.5196 41.176 96.5196 38.2Z"/>
<path d="M133.44 17.824C138.24 17.824 142.128 19.288 145.104 22.216C148.08 25.096 149.568 29.272 149.568 34.744V58H143.088V35.68C143.088 31.744 142.104 28.744 140.136 26.68C138.168 24.568 135.48 23.512 132.072 23.512C128.616 23.512 125.856 24.592 123.792 26.752C121.776 28.912 120.768 32.056 120.768 36.184V58H114.216V18.544H120.768V24.16C122.064 22.144 123.816 20.584 126.024 19.48C128.28 18.376 130.752 17.824 133.44 17.824Z"/>
<path d="M163.655 12.136C162.407 12.136 161.351 11.704 160.487 10.84C159.623 9.97601 159.191 8.92001 159.191 7.67201C159.191 6.42401 159.623 5.36801 160.487 4.50401C161.351 3.64001 162.407 3.20801 163.655 3.20801C164.855 3.20801 165.863 3.64001 166.679 4.50401C167.543 5.36801 167.975 6.42401 167.975 7.67201C167.975 8.92001 167.543 9.97601 166.679 10.84C165.863 11.704 164.855 12.136 163.655 12.136ZM166.823 18.544V58H160.271V18.544H166.823Z"/>
<path d="M228.073 7.81601V13.144H214.393V58H207.841V13.144H194.089V7.81601H228.073Z"/>
<path d="M272.138 36.76C272.138 38.008 272.066 39.328 271.922 40.72H240.386C240.626 44.608 241.946 47.656 244.346 49.864C246.794 52.024 249.746 53.104 253.202 53.104C256.034 53.104 258.386 52.456 260.258 51.16C262.178 49.816 263.522 48.04 264.29 45.832H271.346C270.29 49.624 268.178 52.72 265.01 55.12C261.842 57.472 257.906 58.648 253.202 58.648C249.458 58.648 246.098 57.808 243.122 56.128C240.194 54.448 237.89 52.072 236.21 49C234.53 45.88 233.69 42.28 233.69 38.2C233.69 34.12 234.506 30.544 236.138 27.472C237.77 24.4 240.05 22.048 242.978 20.416C245.954 18.736 249.362 17.896 253.202 17.896C256.946 17.896 260.258 18.712 263.138 20.344C266.018 21.976 268.226 24.232 269.762 27.112C271.346 29.944 272.138 33.16 272.138 36.76ZM265.37 35.392C265.37 32.896 264.818 30.76 263.714 28.984C262.61 27.16 261.098 25.792 259.178 24.88C257.306 23.92 255.218 23.44 252.914 23.44C249.602 23.44 246.77 24.496 244.418 26.608C242.114 28.72 240.794 31.648 240.458 35.392H265.37Z"/>
<path d="M284.314 12.136C283.066 12.136 282.01 11.704 281.146 10.84C280.33 9.97601 279.922 8.92001 279.922 7.67201C279.922 6.42401 280.33 5.36801 281.146 4.50401C282.01 3.64001 283.066 3.20801 284.314 3.20801C285.562 3.20801 286.594 3.64001 287.41 4.50401C288.274 5.36801 288.706 6.42401 288.706 7.67201C288.706 8.92001 288.274 9.97601 287.41 10.84C286.594 11.704 285.562 12.136 284.314 12.136ZM287.554 66.568C287.554 70.072 286.666 72.64 284.89 74.272C283.114 75.904 280.522 76.72 277.114 76.72H273.298V71.176H276.034C277.858 71.176 279.13 70.816 279.85 70.096C280.618 69.376 281.002 68.152 281.002 66.424V18.544H287.554V66.568Z"/>
<path d="M296.198 38.128C296.198 34.096 297.014 30.568 298.646 27.544C300.278 24.472 302.51 22.096 305.342 20.416C308.222 18.736 311.414 17.896 314.918 17.896C318.374 17.896 321.374 18.64 323.918 20.128C326.462 21.616 328.358 23.488 329.606 25.744V18.544H336.23V58H329.606V50.656C328.31 52.96 326.366 54.88 323.774 56.416C321.23 57.904 318.254 58.648 314.846 58.648C311.342 58.648 308.174 57.784 305.342 56.056C302.51 54.328 300.278 51.904 298.646 48.784C297.014 45.664 296.198 42.112 296.198 38.128ZM329.606 38.2C329.606 35.224 329.006 32.632 327.806 30.424C326.606 28.216 324.974 26.536 322.91 25.384C320.894 24.184 318.662 23.584 316.214 23.584C313.766 23.584 311.534 24.16 309.518 25.312C307.502 26.464 305.894 28.144 304.694 30.352C303.494 32.56 302.894 35.152 302.894 38.128C302.894 41.152 303.494 43.792 304.694 46.048C305.894 48.256 307.502 49.96 309.518 51.16C311.534 52.312 313.766 52.888 316.214 52.888C318.662 52.888 320.894 52.312 322.91 51.16C324.974 49.96 326.606 48.256 327.806 46.048C329.006 43.792 329.606 41.176 329.606 38.2Z"/>
<path d="M373.049 13.144V29.92H391.337V35.32H373.049V52.6H393.497V58H366.497V7.74401H393.497V13.144H373.049Z"/>
<path d="M450.859 17.824C453.931 17.824 456.667 18.472 459.067 19.768C461.467 21.016 463.363 22.912 464.755 25.456C466.147 28 466.843 31.096 466.843 34.744V58H460.363V35.68C460.363 31.744 459.379 28.744 457.411 26.68C455.491 24.568 452.875 23.512 449.563 23.512C446.155 23.512 443.443 24.616 441.427 26.824C439.411 28.984 438.403 32.128 438.403 36.256V58H431.923V35.68C431.923 31.744 430.939 28.744 428.971 26.68C427.051 24.568 424.435 23.512 421.123 23.512C417.715 23.512 415.003 24.616 412.987 26.824C410.971 28.984 409.963 32.128 409.963 36.256V58H403.411V18.544H409.963V24.232C411.259 22.168 412.987 20.584 415.147 19.48C417.355 18.376 419.779 17.824 422.419 17.824C425.731 17.824 428.659 18.568 431.203 20.056C433.747 21.544 435.643 23.728 436.891 26.608C437.995 23.824 439.819 21.664 442.363 20.128C444.907 18.592 447.739 17.824 450.859 17.824Z"/>
<path d="M525.039 17.824C528.111 17.824 530.847 18.472 533.247 19.768C535.647 21.016 537.543 22.912 538.935 25.456C540.327 28 541.023 31.096 541.023 34.744V58H534.543V35.68C534.543 31.744 533.559 28.744 531.591 26.68C529.671 24.568 527.055 23.512 523.743 23.512C520.335 23.512 517.623 24.616 515.607 26.824C513.591 28.984 512.583 32.128 512.583 36.256V58H506.103V35.68C506.103 31.744 505.119 28.744 503.151 26.68C501.231 24.568 498.615 23.512 495.303 23.512C491.895 23.512 489.183 24.616 487.167 26.824C485.151 28.984 484.143 32.128 484.143 36.256V58H477.591V18.544H484.143V24.232C485.439 22.168 487.167 20.584 489.327 19.48C491.535 18.376 493.959 17.824 496.599 17.824C499.911 17.824 502.839 18.568 505.383 20.056C507.927 21.544 509.823 23.728 511.071 26.608C512.175 23.824 513.999 21.664 516.543 20.128C519.087 18.592 521.919 17.824 525.039 17.824Z"/>
<path d="M549.323 38.128C549.323 34.096 550.139 30.568 551.771 27.544C553.403 24.472 555.635 22.096 558.467 20.416C561.347 18.736 564.539 17.896 568.043 17.896C571.499 17.896 574.499 18.64 577.043 20.128C579.587 21.616 581.483 23.488 582.731 25.744V18.544H589.355V58H582.731V50.656C581.435 52.96 579.491 54.88 576.899 56.416C574.355 57.904 571.379 58.648 567.971 58.648C564.467 58.648 561.299 57.784 558.467 56.056C555.635 54.328 553.403 51.904 551.771 48.784C550.139 45.664 549.323 42.112 549.323 38.128ZM582.731 38.2C582.731 35.224 582.131 32.632 580.931 30.424C579.731 28.216 578.099 26.536 576.035 25.384C574.019 24.184 571.787 23.584 569.339 23.584C566.891 23.584 564.659 24.16 562.643 25.312C560.627 26.464 559.019 28.144 557.819 30.352C556.619 32.56 556.019 35.152 556.019 38.128C556.019 41.152 556.619 43.792 557.819 46.048C559.019 48.256 560.627 49.96 562.643 51.16C564.659 52.312 566.891 52.888 569.339 52.888C571.787 52.888 574.019 52.312 576.035 51.16C578.099 49.96 579.731 48.256 580.931 46.048C582.131 43.792 582.731 41.176 582.731 38.2Z"/>
<path d="M597.979 38.128C597.979 34.096 598.795 30.568 600.427 27.544C602.059 24.472 604.291 22.096 607.123 20.416C610.003 18.736 613.219 17.896 616.771 17.896C619.843 17.896 622.699 18.616 625.339 20.056C627.979 21.448 629.995 23.296 631.387 25.6V4.72001H638.011V58H631.387V50.584C630.091 52.936 628.171 54.88 625.627 56.416C623.083 57.904 620.107 58.648 616.699 58.648C613.195 58.648 610.003 57.784 607.123 56.056C604.291 54.328 602.059 51.904 600.427 48.784C598.795 45.664 597.979 42.112 597.979 38.128ZM631.387 38.2C631.387 35.224 630.787 32.632 629.587 30.424C628.387 28.216 626.755 26.536 624.691 25.384C622.675 24.184 620.443 23.584 617.995 23.584C615.547 23.584 613.315 24.16 611.299 25.312C609.283 26.464 607.675 28.144 606.475 30.352C605.275 32.56 604.675 35.152 604.675 38.128C604.675 41.152 605.275 43.792 606.475 46.048C607.675 48.256 609.283 49.96 611.299 51.16C613.315 52.312 615.547 52.888 617.995 52.888C620.443 52.888 622.675 52.312 624.691 51.16C626.755 49.96 628.387 48.256 629.587 46.048C630.787 43.792 631.387 41.176 631.387 38.2Z"/>
<path d="M652.467 12.136C651.219 12.136 650.163 11.704 649.299 10.84C648.435 9.97601 648.003 8.92001 648.003 7.67201C648.003 6.42401 648.435 5.36801 649.299 4.50401C650.163 3.64001 651.219 3.20801 652.467 3.20801C653.667 3.20801 654.675 3.64001 655.491 4.50401C656.355 5.36801 656.787 6.42401 656.787 7.67201C656.787 8.92001 656.355 9.97601 655.491 10.84C654.675 11.704 653.667 12.136 652.467 12.136ZM655.635 18.544V58H649.083V18.544H655.635Z"/>
</mask>
<path d="M54.448 8.17601V58H47.896V20.848L31.336 58H26.728L10.096 20.776V58H3.54401V8.17601H10.6L29.032 49.36L47.464 8.17601H54.448Z" stroke="white" stroke-width="6" mask="url(#path-1-outside-1)"/>
<path d="M63.1116 38.128C63.1116 34.096 63.9276 30.568 65.5596 27.544C67.1916 24.472 69.4236 22.096 72.2556 20.416C75.1356 18.736 78.3276 17.896 81.8316 17.896C85.2876 17.896 88.2876 18.64 90.8316 20.128C93.3756 21.616 95.2716 23.488 96.5196 25.744V18.544H103.144V58H96.5196V50.656C95.2236 52.96 93.2796 54.88 90.6876 56.416C88.1436 57.904 85.1676 58.648 81.7596 58.648C78.2556 58.648 75.0876 57.784 72.2556 56.056C69.4236 54.328 67.1916 51.904 65.5596 48.784C63.9276 45.664 63.1116 42.112 63.1116 38.128ZM96.5196 38.2C96.5196 35.224 95.9196 32.632 94.7196 30.424C93.5196 28.216 91.8876 26.536 89.8236 25.384C87.8076 24.184 85.5756 23.584 83.1276 23.584C80.6796 23.584 78.4476 24.16 76.4316 25.312C74.4156 26.464 72.8076 28.144 71.6076 30.352C70.4076 32.56 69.8076 35.152 69.8076 38.128C69.8076 41.152 70.4076 43.792 71.6076 46.048C72.8076 48.256 74.4156 49.96 76.4316 51.16C78.4476 52.312 80.6796 52.888 83.1276 52.888C85.5756 52.888 87.8076 52.312 89.8236 51.16C91.8876 49.96 93.5196 48.256 94.7196 46.048C95.9196 43.792 96.5196 41.176 96.5196 38.2Z" stroke="white" stroke-width="6" mask="url(#path-1-outside-1)"/>
<path d="M133.44 17.824C138.24 17.824 142.128 19.288 145.104 22.216C148.08 25.096 149.568 29.272 149.568 34.744V58H143.088V35.68C143.088 31.744 142.104 28.744 140.136 26.68C138.168 24.568 135.48 23.512 132.072 23.512C128.616 23.512 125.856 24.592 123.792 26.752C121.776 28.912 120.768 32.056 120.768 36.184V58H114.216V18.544H120.768V24.16C122.064 22.144 123.816 20.584 126.024 19.48C128.28 18.376 130.752 17.824 133.44 17.824Z" stroke="white" stroke-width="6" mask="url(#path-1-outside-1)"/>
<path d="M163.655 12.136C162.407 12.136 161.351 11.704 160.487 10.84C159.623 9.97601 159.191 8.92001 159.191 7.67201C159.191 6.42401 159.623 5.36801 160.487 4.50401C161.351 3.64001 162.407 3.20801 163.655 3.20801C164.855 3.20801 165.863 3.64001 166.679 4.50401C167.543 5.36801 167.975 6.42401 167.975 7.67201C167.975 8.92001 167.543 9.97601 166.679 10.84C165.863 11.704 164.855 12.136 163.655 12.136ZM166.823 18.544V58H160.271V18.544H166.823Z" stroke="white" stroke-width="6" mask="url(#path-1-outside-1)"/>
<path d="M228.073 7.81601V13.144H214.393V58H207.841V13.144H194.089V7.81601H228.073Z" stroke="white" stroke-width="6" mask="url(#path-1-outside-1)"/>
<path d="M272.138 36.76C272.138 38.008 272.066 39.328 271.922 40.72H240.386C240.626 44.608 241.946 47.656 244.346 49.864C246.794 52.024 249.746 53.104 253.202 53.104C256.034 53.104 258.386 52.456 260.258 51.16C262.178 49.816 263.522 48.04 264.29 45.832H271.346C270.29 49.624 268.178 52.72 265.01 55.12C261.842 57.472 257.906 58.648 253.202 58.648C249.458 58.648 246.098 57.808 243.122 56.128C240.194 54.448 237.89 52.072 236.21 49C234.53 45.88 233.69 42.28 233.69 38.2C233.69 34.12 234.506 30.544 236.138 27.472C237.77 24.4 240.05 22.048 242.978 20.416C245.954 18.736 249.362 17.896 253.202 17.896C256.946 17.896 260.258 18.712 263.138 20.344C266.018 21.976 268.226 24.232 269.762 27.112C271.346 29.944 272.138 33.16 272.138 36.76ZM265.37 35.392C265.37 32.896 264.818 30.76 263.714 28.984C262.61 27.16 261.098 25.792 259.178 24.88C257.306 23.92 255.218 23.44 252.914 23.44C249.602 23.44 246.77 24.496 244.418 26.608C242.114 28.72 240.794 31.648 240.458 35.392H265.37Z" stroke="white" stroke-width="6" mask="url(#path-1-outside-1)"/>
<path d="M284.314 12.136C283.066 12.136 282.01 11.704 281.146 10.84C280.33 9.97601 279.922 8.92001 279.922 7.67201C279.922 6.42401 280.33 5.36801 281.146 4.50401C282.01 3.64001 283.066 3.20801 284.314 3.20801C285.562 3.20801 286.594 3.64001 287.41 4.50401C288.274 5.36801 288.706 6.42401 288.706 7.67201C288.706 8.92001 288.274 9.97601 287.41 10.84C286.594 11.704 285.562 12.136 284.314 12.136ZM287.554 66.568C287.554 70.072 286.666 72.64 284.89 74.272C283.114 75.904 280.522 76.72 277.114 76.72H273.298V71.176H276.034C277.858 71.176 279.13 70.816 279.85 70.096C280.618 69.376 281.002 68.152 281.002 66.424V18.544H287.554V66.568Z" stroke="white" stroke-width="6" mask="url(#path-1-outside-1)"/>
<path d="M296.198 38.128C296.198 34.096 297.014 30.568 298.646 27.544C300.278 24.472 302.51 22.096 305.342 20.416C308.222 18.736 311.414 17.896 314.918 17.896C318.374 17.896 321.374 18.64 323.918 20.128C326.462 21.616 328.358 23.488 329.606 25.744V18.544H336.23V58H329.606V50.656C328.31 52.96 326.366 54.88 323.774 56.416C321.23 57.904 318.254 58.648 314.846 58.648C311.342 58.648 308.174 57.784 305.342 56.056C302.51 54.328 300.278 51.904 298.646 48.784C297.014 45.664 296.198 42.112 296.198 38.128ZM329.606 38.2C329.606 35.224 329.006 32.632 327.806 30.424C326.606 28.216 324.974 26.536 322.91 25.384C320.894 24.184 318.662 23.584 316.214 23.584C313.766 23.584 311.534 24.16 309.518 25.312C307.502 26.464 305.894 28.144 304.694 30.352C303.494 32.56 302.894 35.152 302.894 38.128C302.894 41.152 303.494 43.792 304.694 46.048C305.894 48.256 307.502 49.96 309.518 51.16C311.534 52.312 313.766 52.888 316.214 52.888C318.662 52.888 320.894 52.312 322.91 51.16C324.974 49.96 326.606 48.256 327.806 46.048C329.006 43.792 329.606 41.176 329.606 38.2Z" stroke="white" stroke-width="6" mask="url(#path-1-outside-1)"/>
<path d="M373.049 13.144V29.92H391.337V35.32H373.049V52.6H393.497V58H366.497V7.74401H393.497V13.144H373.049Z" stroke="white" stroke-width="6" mask="url(#path-1-outside-1)"/>
<path d="M450.859 17.824C453.931 17.824 456.667 18.472 459.067 19.768C461.467 21.016 463.363 22.912 464.755 25.456C466.147 28 466.843 31.096 466.843 34.744V58H460.363V35.68C460.363 31.744 459.379 28.744 457.411 26.68C455.491 24.568 452.875 23.512 449.563 23.512C446.155 23.512 443.443 24.616 441.427 26.824C439.411 28.984 438.403 32.128 438.403 36.256V58H431.923V35.68C431.923 31.744 430.939 28.744 428.971 26.68C427.051 24.568 424.435 23.512 421.123 23.512C417.715 23.512 415.003 24.616 412.987 26.824C410.971 28.984 409.963 32.128 409.963 36.256V58H403.411V18.544H409.963V24.232C411.259 22.168 412.987 20.584 415.147 19.48C417.355 18.376 419.779 17.824 422.419 17.824C425.731 17.824 428.659 18.568 431.203 20.056C433.747 21.544 435.643 23.728 436.891 26.608C437.995 23.824 439.819 21.664 442.363 20.128C444.907 18.592 447.739 17.824 450.859 17.824Z" stroke="white" stroke-width="6" mask="url(#path-1-outside-1)"/>
<path d="M525.039 17.824C528.111 17.824 530.847 18.472 533.247 19.768C535.647 21.016 537.543 22.912 538.935 25.456C540.327 28 541.023 31.096 541.023 34.744V58H534.543V35.68C534.543 31.744 533.559 28.744 531.591 26.68C529.671 24.568 527.055 23.512 523.743 23.512C520.335 23.512 517.623 24.616 515.607 26.824C513.591 28.984 512.583 32.128 512.583 36.256V58H506.103V35.68C506.103 31.744 505.119 28.744 503.151 26.68C501.231 24.568 498.615 23.512 495.303 23.512C491.895 23.512 489.183 24.616 487.167 26.824C485.151 28.984 484.143 32.128 484.143 36.256V58H477.591V18.544H484.143V24.232C485.439 22.168 487.167 20.584 489.327 19.48C491.535 18.376 493.959 17.824 496.599 17.824C499.911 17.824 502.839 18.568 505.383 20.056C507.927 21.544 509.823 23.728 511.071 26.608C512.175 23.824 513.999 21.664 516.543 20.128C519.087 18.592 521.919 17.824 525.039 17.824Z" stroke="white" stroke-width="6" mask="url(#path-1-outside-1)"/>
<path d="M549.323 38.128C549.323 34.096 550.139 30.568 551.771 27.544C553.403 24.472 555.635 22.096 558.467 20.416C561.347 18.736 564.539 17.896 568.043 17.896C571.499 17.896 574.499 18.64 577.043 20.128C579.587 21.616 581.483 23.488 582.731 25.744V18.544H589.355V58H582.731V50.656C581.435 52.96 579.491 54.88 576.899 56.416C574.355 57.904 571.379 58.648 567.971 58.648C564.467 58.648 561.299 57.784 558.467 56.056C555.635 54.328 553.403 51.904 551.771 48.784C550.139 45.664 549.323 42.112 549.323 38.128ZM582.731 38.2C582.731 35.224 582.131 32.632 580.931 30.424C579.731 28.216 578.099 26.536 576.035 25.384C574.019 24.184 571.787 23.584 569.339 23.584C566.891 23.584 564.659 24.16 562.643 25.312C560.627 26.464 559.019 28.144 557.819 30.352C556.619 32.56 556.019 35.152 556.019 38.128C556.019 41.152 556.619 43.792 557.819 46.048C559.019 48.256 560.627 49.96 562.643 51.16C564.659 52.312 566.891 52.888 569.339 52.888C571.787 52.888 574.019 52.312 576.035 51.16C578.099 49.96 579.731 48.256 580.931 46.048C582.131 43.792 582.731 41.176 582.731 38.2Z" stroke="white" stroke-width="6" mask="url(#path-1-outside-1)"/>
<path d="M597.979 38.128C597.979 34.096 598.795 30.568 600.427 27.544C602.059 24.472 604.291 22.096 607.123 20.416C610.003 18.736 613.219 17.896 616.771 17.896C619.843 17.896 622.699 18.616 625.339 20.056C627.979 21.448 629.995 23.296 631.387 25.6V4.72001H638.011V58H631.387V50.584C630.091 52.936 628.171 54.88 625.627 56.416C623.083 57.904 620.107 58.648 616.699 58.648C613.195 58.648 610.003 57.784 607.123 56.056C604.291 54.328 602.059 51.904 600.427 48.784C598.795 45.664 597.979 42.112 597.979 38.128ZM631.387 38.2C631.387 35.224 630.787 32.632 629.587 30.424C628.387 28.216 626.755 26.536 624.691 25.384C622.675 24.184 620.443 23.584 617.995 23.584C615.547 23.584 613.315 24.16 611.299 25.312C609.283 26.464 607.675 28.144 606.475 30.352C605.275 32.56 604.675 35.152 604.675 38.128C604.675 41.152 605.275 43.792 606.475 46.048C607.675 48.256 609.283 49.96 611.299 51.16C613.315 52.312 615.547 52.888 617.995 52.888C620.443 52.888 622.675 52.312 624.691 51.16C626.755 49.96 628.387 48.256 629.587 46.048C630.787 43.792 631.387 41.176 631.387 38.2Z" stroke="white" stroke-width="6" mask="url(#path-1-outside-1)"/>
<path d="M652.467 12.136C651.219 12.136 650.163 11.704 649.299 10.84C648.435 9.97601 648.003 8.92001 648.003 7.67201C648.003 6.42401 648.435 5.36801 649.299 4.50401C650.163 3.64001 651.219 3.20801 652.467 3.20801C653.667 3.20801 654.675 3.64001 655.491 4.50401C656.355 5.36801 656.787 6.42401 656.787 7.67201C656.787 8.92001 656.355 9.97601 655.491 10.84C654.675 11.704 653.667 12.136 652.467 12.136ZM655.635 18.544V58H649.083V18.544H655.635Z" stroke="white" stroke-width="6" mask="url(#path-1-outside-1)"/>
</svg>
